<svg width="24" height="25" viewBox="0 0 24 25" fill="none" xmlns="http://www.w3.org/2000/svg">
<g id="atom-outline">
<g id="Vector">
<path d="M11.9999 14.2508C13.1051 14.2508 14.0009 13.3549 14.0009 12.2498C14.0009 11.1447 13.1051 10.2488 11.9999 10.2488C10.8948 10.2488 9.99895 11.1447 9.99895 12.2498C9.99895 13.3549 10.8948 14.2508 11.9999 14.2508Z" fill="white"/>
<path d="M19.8559 12.2498C22.2359 8.44579 22.6719 5.05379 20.9339 3.31479C19.1469 1.52679 15.6909 2.04779 11.9999 4.36679C8.30895 2.04879 4.85395 1.52879 3.06595 3.31479C1.27595 5.10479 1.80095 8.56879 4.12895 12.2668C3.20995 13.7398 2.54595 15.1938 2.22695 16.5018C1.60495 19.0558 2.33995 20.4578 3.06595 21.1838C3.78195 21.8998 4.77495 22.2508 5.96195 22.2508C7.66195 22.2508 9.75895 21.5218 11.9999 20.1178C14.2399 21.5188 16.3399 22.2468 18.0399 22.2468C19.2269 22.2468 20.2209 21.8968 20.9339 21.1838C22.6729 19.4458 22.2369 16.0538 19.8559 12.2498ZM4.48095 19.7698C3.78795 19.0758 3.98995 17.7228 4.17095 16.9758C4.38895 16.0808 4.80795 15.0878 5.38495 14.0568C6.04895 14.9138 6.79595 15.7718 7.63695 16.6128C7.83195 16.8078 8.08795 16.9058 8.34395 16.9058C8.59995 16.9058 8.85595 16.8078 9.05095 16.6128C9.44195 16.2218 9.44195 15.5888 9.05095 15.1978C6.94995 13.0968 5.34495 10.7748 4.53095 8.65779C3.83895 6.85779 3.81995 5.38979 4.48095 4.72879C5.35995 3.85079 7.58395 4.18979 10.1859 5.63779C9.32995 6.30279 8.47495 7.04679 7.63595 7.88579C7.24495 8.27679 7.24495 8.90979 7.63595 9.30079C8.02695 9.69179 8.65995 9.69179 9.05095 9.30079C10.0249 8.32679 11.0219 7.49579 11.9999 6.79679C12.9779 7.49479 13.9749 8.32679 14.9489 9.30079C15.3399 9.69179 15.9729 9.69179 16.3639 9.30079C16.7549 8.90979 16.7549 8.27679 16.3639 7.88579C15.5249 7.04679 14.6689 6.30179 13.8139 5.63879C16.4159 4.18979 18.6409 3.85079 19.5199 4.72979C20.5759 5.78679 19.8909 8.65079 17.8539 11.6938C17.8529 11.6958 17.8499 11.6988 17.8499 11.6988L17.8479 11.7018C17.4829 12.2448 17.0769 12.7928 16.6389 13.3308C16.1179 13.9708 15.5499 14.5998 14.9499 15.1988C14.4349 15.7128 13.8999 16.2038 13.3599 16.6588C12.7399 17.1798 12.1079 17.6568 11.4809 18.0778C8.42095 20.1368 5.54395 20.8308 4.48095 19.7698ZM19.5199 19.7698C18.6129 20.6778 16.3529 20.2918 13.7999 18.8648C14.0829 18.6468 14.3669 18.4248 14.6459 18.1908C15.2299 17.6998 15.8079 17.1688 16.3639 16.6138C17.0109 15.9668 17.6259 15.2878 18.1899 14.5948C18.3359 14.4148 18.4729 14.2328 18.6129 14.0508C20.0409 16.6038 20.4299 18.8588 19.5199 19.7698Z" fill="white"/>
</g>
</g>
</svg>
